<?xml version="1.0" encoding="UTF-8" standalone="no"?>
<svg
   width="89.308174mm"
   height="85.349892mm"
   version="1.1"
   viewBox="0 0 337.52988 322.58826"
   id="svg14"
   sodipodi:docname="favicon.svg"
   inkscape:version="1.1.1 (3bf5ae0d25, 2021-09-20)"
   xmlns:inkscape="http://www.inkscape.org/namespaces/inkscape"
   xmlns:sodipodi="http://sodipodi.sourceforge.net/DTD/sodipodi-0.dtd"
   xmlns="http://www.w3.org/2000/svg"
   xmlns:svg="http://www.w3.org/2000/svg">
  <defs
     id="defs18" />
  <sodipodi:namedview
     id="namedview16"
     pagecolor="#505050"
     bordercolor="#eeeeee"
     borderopacity="1"
     inkscape:pageshadow="0"
     inkscape:pageopacity="0"
     inkscape:pagecheckerboard="0"
     inkscape:document-units="mm"
     showgrid="false"
     fit-margin-top="0"
     fit-margin-left="0"
     fit-margin-right="0"
     fit-margin-bottom="0"
     inkscape:zoom="0.51089425"
     inkscape:cx="349.38738"
     inkscape:cy="114.50511"
     inkscape:window-width="1366"
     inkscape:window-height="697"
     inkscape:window-x="1912"
     inkscape:window-y="500"
     inkscape:window-maximized="1"
     inkscape:current-layer="svg14" />
  <text
     fill="#000000"
     font-family="sans-serif"
     font-size="40px"
     style="line-height:1.25;white-space:pre;shape-inside:url(#rect2546)"
     xml:space="preserve"
     id="text2"
     transform="translate(-26.917562,-207.17984)" />
  <path
     d="m 337.18402,228.90738 c -1.46824,11.79188 -3.8044,21.76696 -6.99849,29.88056 l -2.10957,5.35949 1.24187,3.09489 c 1.67755,4.18042 3.08575,12.23619 2.97426,17.01313 -0.12778,5.47048 -2.52912,13.4774 -5.37594,17.927 -8.71725,13.62246 -24.92234,18.74118 -42.31597,13.36458 l -6.33501,-1.9582 -4.21631,1.67689 c -22.14913,8.80831 -49.75828,9.70674 -76.70611,2.49606 C 144.31778,303.57337 97.2812,259.0857 78.81584,205.65529 c -5.600423,-16.20426 -8.250675,-33.24031 -7.842919,-50.41627 0.365619,-15.36531 2.718877,-27.19209 8.06873,-40.53307 l 2.50237,-6.24047 -1.5798,-5.06772 C 75.793107,90.017401 76.81416,78.483737 82.988832,69.231948 c 1.125385,-1.686192 2.055067,-3.446324 2.065867,-3.911406 0.03988,-1.7053 -15.616049,-20.216687 -16.439206,-19.439059 -0.205074,0.194042 0.209279,2.30115 0.920776,4.682389 0.95861,3.208384 1.263879,6.139446 1.178739,11.318155 C 70.525984,73.380963 67.268351,80.907347 58.733376,89.565944 48.238711,100.21214 32.406986,107.94822 11.90118,112.45116 -0.20523735,115.10938 0.96452905,115.91509 0.23708057,104.41715 -1.0634205,83.861505 2.4473409,64.492234 9.6861013,52.287782 17.811326,38.589053 29.886173,31.644064 45.385578,31.753729 c 3.202069,0.02276 5.820917,-0.108336 5.81992,-0.291478 -0.0033,-0.493461 -9.957471,-6.893646 -16.547542,-10.63939 -3.162358,-1.797353 -5.743487,-3.476898 -5.735844,-3.73212 0.01329,-0.453517 8.249512,-16.67914152 8.669565,-17.08124872 0.33669,-0.32132021 13.958104,7.59450892 20.08542,11.67190972 16.70905,11.119759 30.811049,24.219482 41.157832,38.233416 3.794431,5.138664 3.936001,5.249659 5.999871,4.709639 3.28465,-0.859546 13.74409,-0.389014 17.93033,0.80664 2.07716,0.593175 5.53994,1.869633 7.6952,2.836518 l 3.91839,1.758139 6.90993,-2.117211 c 12.33056,-3.77798 23.16768,-5.164253 37.58373,-4.807341 22.16242,0.54866 43.7898,6.451993 65.22777,17.804044 49.59709,26.263249 85.05065,75.456574 92.50459,128.356934 0.87676,6.22219 1.23183,24.4006 0.57902,29.64294 z"
     fill="#ffffff"
     stroke-width="0.665654"
     id="path4" />
</svg>
