<?xml version="1.0" encoding="UTF-8"?>
<svg width="317.88mm" height="85.353mm" version="1.1" viewBox="0 0 1201.4 322.6" xmlns="http://www.w3.org/2000/svg">
<g transform="translate(-26.898 -201.78)">
<text fill="#000000" font-family="sans-serif" font-size="40px" style="line-height:1.25;shape-inside:url(#rect2546);white-space:pre" xml:space="preserve"/>
<path d="m364.12 430.69c-1.4683 11.792-3.8046 21.767-6.9988 29.882l-2.1097 5.3597 1.2419 3.095c1.6775 4.1805 3.0859 12.237 2.9743 17.013-0.12778 5.4706-2.5291 13.478-5.3762 17.927-8.7175 13.623-24.924 18.741-42.317 13.365l-6.3352-1.9583-4.2165 1.6769c-22.149 8.8085-49.759 9.707-76.708 2.4961-53.027-14.189-100.06-58.677-118.53-112.11-5.6006-16.205-8.2509-33.242-7.8431-50.419 0.36563-15.366 2.719-27.193 8.0689-40.535l2.5024-6.2406-1.5798-5.0678c-4.1712-13.381-3.1502-24.914 3.0248-34.166 1.1254-1.6862 2.0551-3.4464 2.066-3.9115 0.0399-1.7053-15.616-20.218-16.44-19.439-0.20508 0.19405 0.20928 2.3012 0.9208 4.6825 0.95864 3.2084 1.2639 6.1396 1.1788 11.319-0.18903 11.499-3.4468 19.026-11.982 27.685-10.495 10.647-26.326 18.383-46.833 22.886-12.107 2.6583-10.937 3.464-11.664-8.0342-1.3005-20.557 2.2103-39.926 9.4494-52.13 8.1255-13.699 20.201-20.645 35.701-20.534 3.2021 0.0228 5.8211-0.10834 5.82-0.29149-0.0033-0.49348-9.9577-6.8939-16.548-10.64-3.1625-1.7974-5.7436-3.477-5.7359-3.7323 0.01329-0.45353 8.2498-16.68 8.6698-17.081 0.3367-0.32133 13.959 7.5948 20.085 11.672 16.709 11.12 30.811 24.22 41.159 38.234 3.7945 5.1387 3.936 5.2499 6.0001 4.7097 3.2848-0.85957 13.744-0.38903 17.931 0.80666 2.0773 0.59319 5.5402 1.8697 7.6954 2.8366l3.9186 1.7581 6.9101-2.1172c12.331-3.7781 23.169-5.1643 37.585-4.8075 22.163 0.54868 43.791 6.4522 65.23 17.805 49.599 26.264 85.053 75.459 92.507 128.36 0.87678 6.2223 1.2319 24.401 0.57903 29.644z" fill="currentColor" stroke-width=".66568"/>
<g transform="matrix(8.5113 0 0 8.5113 -961.24 2798.1)" fill="currentColor" style="shape-inside:url(#rect1577);white-space:pre" aria-label="LiMA">
<path d="m167.45-273.46h10.88q1.32 0 1.92 0.32 0.6 0.28 0.8 0.92t0.2 1.72q0 1.04-0.2 1.68t-0.68 0.88q-0.76 0.4-2.08 0.4h-14.4q-2.8 0-3.28-1.52-0.24-0.64-0.24-2.04v-22.24q0-0.92 0.04-1.36 0.08-0.48 0.4-1.08 0.56-1.08 3.12-1.08 2.8 0 3.32 1.48 0.2 0.68 0.2 2.08z"/>
<path d="m183.85-285.1q0-0.92 0.04-1.36 0.08-0.48 0.36-1.08 0.56-1.04 3.12-1.04 1.92 0 2.72 0.68 0.68 0.56 0.72 1.72 0.04 0.4 0.04 1.16v14q0 0.92-0.08 1.4-0.04 0.44-0.36 1.04-0.52 1.04-3.08 1.04-2.52 0-3.08-1.08-0.28-0.6-0.36-1.04-0.04-0.44-0.04-1.4zm6.56-7.4q-0.28 0.56-1.04 0.8t-2.04 0.24q-1.24 0-2-0.24t-1.08-0.84q-0.28-0.6-0.36-1.04-0.04-0.48-0.04-1.4t0.04-1.36q0.08-0.48 0.36-1.04 0.56-1.08 3.12-1.08 2.52 0 3.04 1.08 0.32 0.6 0.36 1.08 0.08 0.44 0.08 1.36t-0.08 1.4q-0.04 0.44-0.36 1.04z"/>
<path d="m225.21-295.74q0.32 0.6 0.36 1.08 0.08 0.48 0.08 1.4v22.2q0 2.76-1.52 3.24-0.76 0.24-1.92 0.24t-1.84-0.2-1.04-0.48-0.56-0.8q-0.2-0.68-0.2-2.08v-13.4q-1 1.24-2.92 3.96-1.92 2.68-2.44 3.36t-0.72 0.96q-0.2 0.24-1 0.72-0.76 0.44-1.68 0.44-0.88 0-1.64-0.4-0.72-0.44-1.04-0.84l-0.32-0.44q-0.8-1-3.16-4.24-2.36-3.28-2.56-3.52v13.48q0 0.92-0.08 1.4-0.04 0.44-0.36 1-0.6 1.08-3.12 1.08-2.44 0-3.04-1.08-0.32-0.56-0.4-1.04-0.04-0.48-0.04-1.44v-22.2q0-0.92 0.04-1.36 0.08-0.48 0.4-1.08 0.6-1.04 3.12-1.04 1.08 0 1.84 0.28 0.8 0.24 1.04 0.52l0.24 0.24 9.08 11.92q6.8-9 9.08-11.88 0.68-1.08 3.2-1.08 2.56 0 3.12 1.08z"/>
<path d="m245.77-294.78 10.8 22.32q0.68 1.36 0.68 2.04 0 1.44-2.32 2.6-1.36 0.68-2.16 0.68-0.76 0-1.28-0.36-0.48-0.36-0.72-0.76-0.2-0.4-0.6-1.2l-2.08-4.32h-11.08l-2.08 4.32q-0.4 0.8-0.64 1.16-0.2 0.36-0.72 0.76-0.48 0.36-1.28 0.36-0.76 0-2.12-0.68-2.32-1.12-2.32-2.56 0-0.68 0.68-2.04l10.8-22.36q0.44-0.92 1.32-1.48 0.92-0.56 1.92-0.56 2.16 0 3.2 2.08zm-3.24 9.6-2.64 5.48h5.32z"/>
</g>
</g>
</svg>
