<?xml version="1.0" encoding="UTF-8"?>
<svg width="273.96mm" height="85.353mm" version="1.1" viewBox="0 0 1035.4 322.6" xmlns="http://www.w3.org/2000/svg">
<g transform="translate(-26.898 -207.18)">
<text fill="#000000" font-family="sans-serif" font-size="40px" style="line-height:1.25;shape-inside:url(#rect2546);white-space:pre" xml:space="preserve"/>
<g transform="matrix(1.6616 0 0 1.6616 -75.375 74.872)">
<path d="m264.49 217.39c-0.88363 7.0967-2.2896 13.1-4.2119 17.983l-1.2696 3.2255 0.74739 1.8626c1.0096 2.5159 1.8571 7.3641 1.79 10.239-0.0769 3.2923-1.5221 8.1111-3.2354 10.789-5.2463 8.1984-14.999 11.279-25.467 8.0432l-3.8126-1.1785-2.5375 1.0092c-13.33 5.3011-29.946 5.8418-46.164 1.5022-31.912-8.539-60.22-35.313-71.333-67.469-3.3705-9.7522-4.9655-20.005-4.7201-30.342 0.22004-9.2473 1.6363-16.365 4.856-24.394l1.506-3.7557-0.95077-3.0499c-2.5103-8.0527-1.8958-14.994 1.8203-20.562 0.67729-1.0148 1.2368-2.0741 1.2433-2.354 0.024-1.0263-9.3982-12.167-9.8936-11.699-0.12342 0.11678 0.12595 1.3849 0.55415 2.818 0.57692 1.9309 0.76064 3.6949 0.7094 6.8116-0.11376 6.9204-2.0743 11.45-7.2109 16.661-6.316 6.4072-15.844 11.063-28.185 13.773-7.286 1.5998-6.582 2.0847-7.0198-4.8351-0.78268-12.371 1.3302-24.028 5.6867-31.373 4.89-8.2443 12.157-12.424 21.485-12.358 1.9271 0.0137 3.5032-0.0652 3.5026-0.17542-2e-3 -0.29698-5.9927-4.1488-9.9588-6.4031-1.9032-1.0817-3.4566-2.0925-3.452-2.2461 8e-3 -0.27294 4.9648-10.038 5.2176-10.28 0.20263-0.19338 8.4004 4.5706 12.088 7.0245 10.056 6.6922 18.543 14.576 24.77 23.01 2.2836 3.0926 2.3688 3.1594 3.6109 2.8344 1.9768-0.5173 8.2716-0.23412 10.791 0.48546 1.2501 0.35699 3.3341 1.1252 4.6312 1.7071l2.3582 1.0581 4.1586-1.2742c7.4209-2.2737 13.943-3.108 22.619-2.8932 13.338 0.3302 26.354 3.883 39.256 10.715 29.849 15.806 51.186 45.412 55.672 77.249 0.52766 3.7447 0.74135 14.685 0.34847 17.84z" fill="#fff" stroke-width=".40061"/>
<text x="279.05838" y="273.58072" fill="#ffffff" font-family="Gotham" font-size="188.63px" stroke-width="4.7157" style="line-height:1.25" xml:space="preserve"><tspan x="279.05838" y="273.58072" fill="#ffffff" font-family="'Airstrip Four'" stroke-width="4.7157">LiMA</tspan></text>
</g>
</g>
</svg>
