<?xml version="1.0" encoding="UTF-8" standalone="no"?>
<svg
   shape-rendering="geometricPrecision"
   text-rendering="geometricPrecision"
   image-rendering="optimizeQuality"
   fill-rule="evenodd"
   clip-rule="evenodd"
   viewBox="0 0 506 511.591"
   version="1.1"
   id="svg302"
   sodipodi:docname="cube-line-icon.svg"
   inkscape:version="1.2.2 (732a01da63, 2022-12-09)"
   xmlns:inkscape="http://www.inkscape.org/namespaces/inkscape"
   xmlns:sodipodi="http://sodipodi.sourceforge.net/DTD/sodipodi-0.dtd"
   xmlns="http://www.w3.org/2000/svg"
   xmlns:svg="http://www.w3.org/2000/svg">
  <defs
     id="defs306" />
  <sodipodi:namedview
     id="namedview304"
     pagecolor="#ffffff"
     bordercolor="#000000"
     borderopacity="0.25"
     inkscape:showpageshadow="2"
     inkscape:pageopacity="0.0"
     inkscape:pagecheckerboard="0"
     inkscape:deskcolor="#d1d1d1"
     showgrid="false"
     inkscape:zoom="1.6204351"
     inkscape:cx="166.93048"
     inkscape:cy="256.10406"
     inkscape:window-width="1920"
     inkscape:window-height="1009"
     inkscape:window-x="-8"
     inkscape:window-y="-8"
     inkscape:window-maximized="1"
     inkscape:current-layer="svg302" />
  <path
     fill-rule="nonzero"
     d="M.041 102.171c-.019-4.703 2.858-9.137 7.523-10.875L249.424.729a11.513 11.513 0 018.144.031l241.001 92.419c5.001 2.4 7.431 6.732 7.431 11.726l-.259 310.616c0 5.047-3.238 9.339-7.751 10.912l-238.822 83.986c-4.718 1.674-7.93 1.476-11.952-.096L7.564 420.501C2.915 418.77.041 414.36.041 409.673H0V103.142l.041-.971zm482.84 18.697l-217.827 84.183v278.787l217.589-76.512.238-286.458zm-229.518-96.94L42.776 102.785l211.532 81.635 207.935-80.36-208.88-80.132zM241.86 483.64V204.394L23.194 120.007v281.675L241.86 483.64z"
     id="path300"
     style="fill:#ffffff" />
</svg>
