<?xml version="1.0" encoding="UTF-8" standalone="no"?>
<!-- Created with Inkscape (http://www.inkscape.org/) -->

<svg
   version="1.1"
   id="svg2"
   width="208.09483"
   height="199.15326"
   viewBox="0 0 208.09483 199.15326"
   sodipodi:docname="lima.svg"
   inkscape:version="1.2.2 (732a01da63, 2022-12-09)"
   xmlns:inkscape="http://www.inkscape.org/namespaces/inkscape"
   xmlns:sodipodi="http://sodipodi.sourceforge.net/DTD/sodipodi-0.dtd"
   xmlns="http://www.w3.org/2000/svg"
   xmlns:svg="http://www.w3.org/2000/svg">
  <defs
     id="defs6" />
  <sodipodi:namedview
     id="namedview4"
     pagecolor="#ffffff"
     bordercolor="#000000"
     borderopacity="0.25"
     inkscape:showpageshadow="2"
     inkscape:pageopacity="0.0"
     inkscape:pagecheckerboard="0"
     inkscape:deskcolor="#d1d1d1"
     showgrid="false"
     inkscape:zoom="2.0185459"
     inkscape:cx="324.49101"
     inkscape:cy="95.365678"
     inkscape:window-width="1920"
     inkscape:window-height="991"
     inkscape:window-x="-9"
     inkscape:window-y="-9"
     inkscape:window-maximized="1"
     inkscape:current-layer="g8" />
  <g
     inkscape:groupmode="layer"
     inkscape:label="Image"
     id="g8">
    <path
       style="fill:#ffffff;stroke-width:0.81287"
       d="m 128.03215,198.4074 c -1.34123,-0.34129 -4.53356,-0.6638 -7.09406,-0.7167 -11.7327,-0.24238 -33.091287,-12.26735 -47.696687,-26.85344 -21.14528,-21.11732 -31.79441,-45.74709 -31.77382,-73.487842 0.007,-9.992417 1.05203,-16.911103 3.72247,-24.654833 1.70496,-4.94402 1.88315,-6.343391 1.19031,-9.34801 -1.35473,-5.87498 -1.02507,-14.041177 0.75606,-18.728722 1.53625,-4.043089 1.54564,-4.334391 0.20338,-6.308465 l -1.40724,-2.069644 -0.4484,5.749673 c -0.32687,4.191268 -1.0373,6.754549 -2.62111,9.457124 -4.73462,8.079022 -15.26559,15.058361 -28.3984,18.82088 -10.2004,2.92239 -12.83386,3.286707 -12.83386,1.775456 0,-0.690876 -0.40267,-1.256139 -0.89482995,-1.256139 -0.98717,0 -0.50197,-22.990597 0.68619995,-32.514818 1.20932,-9.69376 8.97737,-18.08694 18.68881,-20.192775 l 3.06089,-0.663726 -3.86114,-2.36854 c -2.74432,-1.683454 -3.86113,-2.892977 -3.86113,-4.181672 0,-2.9010126 3.39911,-9.1724574 4.97146,-9.1724574 0.76781,0 1.54972,-0.45724 1.73757,-1.01608801 0.27325,-0.81287096 0.90799,-0.81287096 3.17372,0 1.55769,0.55884801 3.78148,1.01608801 4.94175,1.01608801 4.67005,0 25.78708,17.1684684 31.81392,25.8652104 2.16378,3.122324 2.27082,3.167728 8.62269,3.65755 3.53744,0.272788 7.77712,1.058125 9.42151,1.745193 2.68936,1.123684 3.40837,1.123693 7.15527,8.9e-5 11.53407,-3.458782 31.934967,-3.07074 45.767937,0.870544 8.90555,2.537369 22.00957,8.784741 30.2106,14.40298 7.69771,5.273432 19.84121,16.859711 25.73367,24.552826 9.61625,12.554869 16.53697,27.242688 17.63363,37.423808 1.35084,12.54094 1.69182,33.67261 0.62809,38.92456 -0.60153,2.96988 -0.96547,10.6554 -0.90424,19.09484 0.0913,12.58551 -0.0782,14.5328 -1.55571,17.87302 -2.01073,4.54557 -4.17497,6.9569 -8.55863,9.53576 -3.19946,1.88221 -3.88869,1.95284 -18.69602,1.9158 -8.45576,-0.0211 -16.83727,0.33618 -18.62558,0.79405 -3.71176,0.95036 -27.2092,0.99479 -30.88908,0.0585 z"
       id="path985" />
  </g>
</svg>
